HIERARCHY
ROOT joint_Root
{
	OFFSET 0.0 0.0 0.0
	CHANNELS 6 Xposition Yposition Zposition Zrotation Xrotation Yrotation 
	JOINT Hips
	{
		OFFSET 4.5925 91.4895 -427.239
		CHANNELS 6 Xposition Yposition Zposition Zrotation Xrotation Yrotation 
		JOINT Spine
		{
			OFFSET 15.7357 0.0 0.0
			CHANNELS 6 Xposition Yposition Zposition Zrotation Xrotation Yrotation 
			JOINT Chest
			{
				OFFSET 8.98455 -0.406207 0.0
				CHANNELS 6 Xposition Yposition Zposition Zrotation Xrotation Yrotation 
				JOINT Neck
				{
					OFFSET 16.3773 0.0 0.0
					CHANNELS 6 Xposition Yposition Zposition Zrotation Xrotation Yrotation 
					JOINT Head
					{
						OFFSET 6.45672 0.0 0.0
						CHANNELS 6 Xposition Yposition Zposition Zrotation Xrotation Yrotation 
						End Site
						{
							OFFSET 0.0 0.0 0.0
						}
					}
				}
				JOINT Shoulder_L
				{
					OFFSET 12.9942 -0.242716 4.98039
					CHANNELS 6 Xposition Yposition Zposition Zrotation Xrotation Yrotation 
					JOINT UpperArm_L
					{
						OFFSET 5.34809 0.0 0.0
						CHANNELS 6 Xposition Yposition Zposition Zrotation Xrotation Yrotation 
						JOINT LowerArm_L
						{
							OFFSET 24.3286 1.87007e-05 0.0
							CHANNELS 6 Xposition Yposition Zposition Zrotation Xrotation Yrotation 
							JOINT Hand_L
							{
								OFFSET 22.2916 0.0 0.0
								CHANNELS 6 Xposition Yposition Zposition Zrotation Xrotation Yrotation 
								End Site
								{
									OFFSET 0.0 0.0 0.0
								}
							}
						}
					}
				}
				JOINT Shoulder_R
				{
					OFFSET 12.9945 -0.242716 -4.98039
					CHANNELS 6 Xposition Yposition Zposition Zrotation Xrotation Yrotation 
					JOINT UpperArm_R
					{
						OFFSET -5.34813 0.0 0.0
						CHANNELS 6 Xposition Yposition Zposition Zrotation Xrotation Yrotation 
						JOINT LowerArm_R
						{
							OFFSET -24.3289 0.000322201 0.0
							CHANNELS 6 Xposition Yposition Zposition Zrotation Xrotation Yrotation 
							JOINT Hand_R
							{
								OFFSET -22.2915 -0.000108084 0.0
								CHANNELS 6 Xposition Yposition Zposition Zrotation Xrotation Yrotation 
								End Site
								{
									OFFSET 0.0 0.0 0.0
								}
							}
						}
					}
				}
			}
		}
		JOINT UpperLeg_L
		{
			OFFSET -2.19248 -6.46944 0.0
			CHANNELS 6 Xposition Yposition Zposition Zrotation Xrotation Yrotation 
			JOINT LowerLeg_L
			{
				OFFSET 39.0811 0.0 -1.23785e-05
				CHANNELS 6 Xposition Yposition Zposition Zrotation Xrotation Yrotation 
				JOINT Foot_L
				{
					OFFSET 40.9854 0.0 -1.26872e-05
					CHANNELS 6 Xposition Yposition Zposition Zrotation Xrotation Yrotation 
					JOINT Toes_L
					{
						OFFSET 11.7543 0.0 0.0
						CHANNELS 6 Xposition Yposition Zposition Zrotation Xrotation Yrotation 
						End Site
						{
							OFFSET 0.0 0.0 0.0
						}
					}
				}
			}
		}
		JOINT UpperLeg_R
		{
			OFFSET -2.19251 6.46944 0.0
			CHANNELS 6 Xposition Yposition Zposition Zrotation Xrotation Yrotation 
			JOINT LowerLeg_R
			{
				OFFSET -39.0811 -0.00228153 -0.0401928
				CHANNELS 6 Xposition Yposition Zposition Zrotation Xrotation Yrotation 
				JOINT Foot_R
				{
					OFFSET -40.9854 0.0 0.0
					CHANNELS 6 Xposition Yposition Zposition Zrotation Xrotation Yrotation 
					JOINT Toes_R
					{
						OFFSET -11.7543 0.0 0.0
						CHANNELS 6 Xposition Yposition Zposition Zrotation Xrotation Yrotation 
						End Site
						{
							OFFSET 0.0 0.0 0.0
						}
					}
				}
			}
		}
	}
}
MOTION
Frames:	8
Frame Time:	0.0333333
0.000000 0.000000 0.000000 0.000000 0.000000 -0.000000 -0.414849 91.504800 -1.105940 89.119400 0.439911 6.434230 15.735700 0.000005 -0.000001 82.035200 87.679700 -82.298200 8.984550 -0.406207 -0.000000 -3.171570 -0.617646 -0.543149 16.377300 -0.000001 -0.000001 4.210550 -4.452070 3.432530 6.456720 -0.000001 -0.000000 -4.923280 -4.218970 0.075683 12.994200 -0.242716 4.980390 -82.967400 -12.472700 -60.265300 5.348090 -0.000007 -0.000001 -31.594500 -62.568100 -78.380200 24.328600 0.000019 0.000005 10.054100 8.615650 -49.811800 22.291600 -0.000001 0.000005 20.504500 5.369420 -1.969240 12.994500 -0.242716 -4.980390 96.032300 -12.946700 -64.748400 -5.348130 -0.000001 -0.000004 -46.826200 -61.710300 -94.352000 -24.328900 0.000322 -0.000009 -3.931110 -4.008230 -44.496900 -22.291500 -0.000108 -0.000004 18.536900 5.572720 -9.825260 -2.192480 -6.469440 -0.000000 -175.722000 -8.413590 -3.421750 39.081100 -0.000007 -0.000012 -0.145155 0.276252 27.719600 40.985400 -0.000006 -0.000013 0.163640 5.383980 -68.005100 11.754300 -0.000000 0.000003 -0.000096 -0.000991 -16.615600 -2.192510 6.469440 -0.000001 176.461000 21.163900 178.229000 -39.081100 -0.002282 -0.040193 -0.026238 0.058440 26.820000 -40.985400 0.000008 0.000006 4.507680 9.883350 -68.747800 -11.754300 -0.000006 -0.000006 -0.005039 -0.061840 -19.089200
0.000000 0.000000 0.000000 0.000000 0.000000 -0.000000 -0.368712 91.501400 -1.100480 89.101300 0.243155 6.440620 15.735700 0.000005 -0.000001 81.827800 87.600800 -82.075800 8.984550 -0.406207 -0.000000 -3.017770 -0.658481 -0.513292 16.377300 -0.000001 -0.000001 4.134840 -4.400200 3.467920 6.456720 -0.000001 -0.000000 -4.869040 -4.076290 0.028139 12.994200 -0.242716 4.980390 -83.358500 -11.710400 -60.157500 5.348090 -0.000007 -0.000001 -30.601900 -61.169500 -74.413600 24.328600 0.000019 0.000005 8.785810 6.200510 -55.064400 22.291600 -0.000001 0.000005 19.518900 5.379260 -2.276140 12.994500 -0.242716 -4.980390 95.707600 -12.208200 -64.702400 -5.348130 -0.000001 -0.000004 -42.994600 -61.022800 -88.761500 -24.328900 0.000322 -0.000009 -5.514990 -4.863900 -48.694200 -22.291500 -0.000108 -0.000004 18.172700 5.551110 -8.758310 -2.192480 -6.469440 -0.000000 -175.741000 -8.411920 -3.401940 39.081100 -0.000007 -0.000012 -0.145933 0.277401 27.747900 40.985400 -0.000006 -0.000013 0.152555 5.209440 -68.042400 11.754300 -0.000000 0.000003 -0.000087 -0.000915 -16.612800 -2.192510 6.469440 -0.000001 176.421000 21.168400 178.228000 -39.081100 -0.002282 -0.040193 -0.029227 0.064341 26.824500 -40.985400 0.000008 0.000006 4.475300 10.104400 -68.735200 -11.754300 -0.000006 -0.000006 -0.004965 -0.061125 -19.060100
0.000000 0.000000 0.000000 0.000000 0.000000 -0.000000 -0.293587 91.497100 -1.109290 89.089500 -0.012923 6.468920 15.735700 0.000005 -0.000001 82.692300 87.516600 -82.938500 8.984550 -0.406207 -0.000000 -2.840980 -0.608731 -0.507501 16.377300 -0.000001 -0.000001 4.223920 -4.393320 3.516250 6.456720 -0.000001 -0.000000 -4.862810 -4.025350 0.058522 12.994200 -0.242716 4.980390 -83.792000 -11.006700 -60.328400 5.348090 -0.000007 -0.000001 -29.249400 -58.835600 -68.934700 24.328600 0.000019 0.000005 6.669780 3.696280 -61.152400 22.291600 -0.000001 0.000005 18.724300 5.388940 -2.581460 12.994500 -0.242716 -4.980390 95.177500 -11.151100 -64.896000 -5.348130 -0.000001 -0.000004 -38.203700 -59.523600 -81.059000 -24.328900 0.000322 -0.000009 -7.552700 -5.367710 -54.778100 -22.291500 -0.000108 -0.000004 18.202500 5.533550 -7.951970 -2.192480 -6.469440 -0.000000 -175.768000 -8.571170 -3.362550 39.081100 -0.000007 -0.000012 -0.143792 0.272887 27.786200 40.985400 -0.000006 -0.000013 0.166390 5.039740 -68.080700 11.754300 -0.000000 0.000003 -0.000072 -0.000776 -16.607500 -2.192510 6.469440 -0.000001 176.183000 21.705900 178.289000 -39.081100 -0.002282 -0.040193 -0.044559 0.094801 26.790400 -40.985400 0.000008 0.000006 4.177950 10.934800 -68.624000 -11.754300 -0.000006 -0.000006 -0.004775 -0.059272 -18.984600
0.000000 0.000000 0.000000 0.000000 0.000000 -0.000000 -0.185484 91.502400 -1.169400 89.086100 -0.298962 6.454120 15.735700 0.000005 -0.000001 83.500900 87.387100 -83.712600 8.984550 -0.406207 -0.000000 -2.574830 -0.572206 -0.436223 16.377300 -0.000001 -0.000001 3.983100 -4.223330 3.313330 6.456720 -0.000001 -0.000000 -4.553760 -4.021220 0.221923 12.994200 -0.242716 4.980390 -84.246400 -10.342700 -60.698200 5.348090 -0.000007 -0.000001 -27.817700 -55.516200 -61.689400 24.328600 0.000019 0.000005 6.036480 2.392360 -68.454300 22.291600 -0.000001 0.000005 17.887200 5.374660 -2.131240 12.994500 -0.242716 -4.980390 94.627700 -10.161400 -65.353600 -5.348130 -0.000001 -0.000004 -34.138800 -57.066000 -72.283400 -24.328900 0.000322 -0.000009 -9.341810 -4.836490 -62.855300 -22.291500 -0.000108 -0.000004 18.207400 5.516820 -7.228440 -2.192480 -6.469440 -0.000000 -175.862000 -8.631930 -3.379060 39.081100 -0.000007 -0.000012 -0.139083 0.263956 27.785600 40.985400 -0.000006 -0.000013 0.168480 4.723050 -68.073200 11.754300 -0.000000 0.000003 -0.000039 -0.000453 -16.595200 -2.192510 6.469440 -0.000001 175.863000 22.575900 178.325000 -39.081100 -0.002282 -0.040193 -0.049914 0.105892 26.684500 -40.985400 0.000008 0.000006 3.645000 11.916900 -68.365300 -11.754300 -0.000006 -0.000006 -0.005141 -0.062818 -19.129100
0.000000 0.000000 0.000000 0.000000 0.000000 -0.000000 -0.025375 91.502600 -1.314830 89.181400 -0.644530 6.232400 15.735700 0.000005 -0.000001 83.496700 87.226300 -83.667200 8.984550 -0.406207 -0.000000 -2.255290 -0.613216 -0.353115 16.377300 -0.000001 -0.000001 3.377730 -3.984340 3.096080 6.456720 -0.000001 -0.000000 -4.417540 -3.937660 0.240632 12.994200 -0.242716 4.980390 -84.831900 -9.337140 -60.861400 5.348090 -0.000007 -0.000001 -26.057800 -51.050000 -53.254700 24.328600 0.000019 0.000005 6.458360 1.651480 -75.718700 22.291600 -0.000001 0.000005 17.627400 5.358890 -1.645870 12.994500 -0.242716 -4.980390 94.015000 -8.989940 -65.811600 -5.348130 -0.000001 -0.000004 -31.305500 -53.399000 -63.604800 -24.328900 0.000322 -0.000009 -10.369800 -3.490370 -71.594700 -22.291500 -0.000108 -0.000004 18.531600 5.506690 -6.806250 -2.192480 -6.469440 -0.000000 -176.113000 -8.821040 -3.672850 39.081100 -0.000007 -0.000012 -0.139490 0.264582 27.798700 40.985400 -0.000006 -0.000013 0.223399 4.446950 -68.013800 11.754300 -0.000000 0.000003 -0.000033 -0.000395 -16.593000 -2.192510 6.469440 -0.000001 175.724000 22.663600 177.895000 -39.081100 -0.002282 -0.040193 -0.041921 0.089821 26.727500 -40.985400 0.000008 0.000006 2.802560 11.786600 -67.992400 -11.754300 -0.000006 -0.000006 -0.007062 -0.080193 -19.837800
0.000000 0.000000 0.000000 0.000000 0.000000 -0.000000 0.147705 91.480000 -1.481440 89.365200 -0.789479 6.085010 15.735700 0.000005 -0.000001 80.604500 87.037600 -80.751400 8.984550 -0.406207 -0.000000 -1.921920 -0.954567 -0.309779 16.377300 -0.000001 -0.000001 2.906520 -3.587160 2.801590 6.456720 -0.000001 -0.000000 -4.480420 -3.749070 0.441531 12.994200 -0.242716 4.980390 -85.484200 -8.167190 -60.928400 5.348090 -0.000007 -0.000001 -24.296900 -45.000000 -44.054700 24.328600 0.000019 0.000005 6.367390 0.874223 -82.215400 22.291600 -0.000001 0.000005 17.192100 5.348650 -1.336880 12.994500 -0.242716 -4.980390 93.161400 -7.419880 -66.845900 -5.348130 -0.000001 -0.000004 -28.105800 -48.425300 -53.979200 -24.328900 0.000322 -0.000009 -11.148200 -1.991460 -79.996600 -22.291500 -0.000108 -0.000004 18.961200 5.502150 -6.621110 -2.192480 -6.469440 -0.000000 -176.429000 -9.121620 -3.968670 39.081100 -0.000007 -0.000012 -0.138603 0.261770 27.900700 40.985400 -0.000006 -0.000013 0.368459 4.456780 -67.977200 11.754300 -0.000000 0.000003 -0.000027 -0.000326 -16.590300 -2.192510 6.469440 -0.000001 175.532000 22.569600 177.389000 -39.081100 -0.002282 -0.040193 -0.030420 0.066051 27.050500 -40.985400 0.000008 0.000006 2.285370 10.995000 -67.837200 -11.754300 -0.000006 -0.000006 -0.009602 -0.100643 -20.673200
0.000000 0.000000 0.000000 0.000000 0.000000 -0.000000 0.310004 91.443700 -1.574740 89.560600 -0.673642 6.181830 15.735700 0.000005 -0.000001 77.931100 86.741600 -78.065800 8.984550 -0.406207 -0.000000 -1.395030 -1.351510 -0.285895 16.377300 -0.000001 -0.000001 2.216080 -3.399650 2.571090 6.456720 -0.000001 -0.000000 -4.476290 -3.557290 0.425532 12.994200 -0.242716 4.980390 -86.429400 -6.569100 -61.390700 5.348090 -0.000007 -0.000001 -22.908700 -37.627900 -35.178600 24.328600 0.000019 0.000005 6.804280 0.387047 -86.756700 22.291600 -0.000001 0.000005 16.764500 5.354950 -1.526910 12.994500 -0.242716 -4.980390 92.262500 -5.677110 -68.232000 -5.348130 -0.000001 -0.000004 -25.189800 -41.999200 -43.478600 -24.328900 0.000322 -0.000009 -12.016700 -0.551243 -87.406200 -22.291500 -0.000108 -0.000004 19.645900 5.504420 -6.710800 -2.192480 -6.469440 -0.000000 -176.703000 -9.340830 -4.027450 39.081100 -0.000007 -0.000012 -0.133564 0.250670 28.050100 40.985400 -0.000006 -0.000013 0.564012 4.699590 -67.991400 11.754300 -0.000000 0.000003 -0.000022 -0.000270 -16.588100 -2.192510 6.469440 -0.000001 175.217000 22.506100 177.228000 -39.081100 -0.002282 -0.040193 -0.032122 0.068229 27.441400 -40.985400 0.000008 0.000006 2.210950 10.660900 -67.931100 -11.754300 -0.000006 -0.000006 -0.009883 -0.102760 -20.759700
0.000000 0.000000 0.000000 0.000000 0.000000 -0.000000 0.452686 91.417500 -1.582880 89.662000 -0.472205 6.397060 15.735700 0.000005 -0.000001 78.688900 86.430300 -78.820700 8.984550 -0.406207 -0.000000 -0.766916 -1.390180 -0.272865 16.377300 -0.000001 -0.000001 1.419380 -3.525550 2.547120 6.456720 -0.000001 -0.000000 -4.375840 -3.556770 0.178829 12.994200 -0.242716 4.980390 -87.600900 -4.535300 -62.087700 5.348090 -0.000007 -0.000001 -23.356100 -29.134200 -28.519300 24.328600 0.000019 0.000005 8.162140 0.246554 -88.281000 22.291600 -0.000001 0.000005 16.210300 5.361630 -1.729240 12.994500 -0.242716 -4.980390 91.277200 -3.435300 -69.598400 -5.348130 -0.000001 -0.000004 -22.768400 -33.945400 -32.768900 -24.328900 0.000322 -0.000009 -13.657300 0.577736 -92.371700 -22.291500 -0.000108 -0.000004 20.365700 5.518020 -7.275220 -2.192480 -6.469440 -0.000000 -176.877000 -9.339010 -3.908210 39.081100 -0.000007 -0.000012 -0.128157 0.239335 28.168000 40.985400 -0.000006 -0.000013 0.722331 4.849100 -68.037000 11.754300 -0.000000 0.000003 -0.000020 -0.000251 -16.587400 -2.192510 6.469440 -0.000001 175.048000 21.893500 177.311000 -39.081100 -0.002282 -0.040193 -0.045166 0.092430 27.673400 -40.985400 0.000008 0.000006 2.179510 10.116700 -68.043200 -11.754300 -0.000006 -0.000006 -0.008545 -0.092422 -20.337200
